inDegrees=no
num_controls=7
num_derivatives=13
num_iterations=104
num_multipliers=7
num_parameters=0
num_slacks=7
num_states=26
objective=5.186329
objective_accelerations=0.532945
objective_balance=0.027057
objective_effort=0.216549
objective_height=4.362989
objective_ligament=0.046789
solver_duration=1162.780700
status=Solve_Succeeded
success=true
DataType=double
version=3
OpenSimVersion=4.4-2022-07-23-0e9fedc
endheader
time	/jointset/ground_pelvis/pelvis_tilt/value	/jointset/ground_pelvis/pelvis_tx/value	/jointset/ground_pelvis/pelvis_ty/value	/jointset/hip_l/hip_flexion_l/value	/jointset/hip_l/hip_adduction_l/value	/jointset/hip_l/hip_rotation_l/value	/jointset/back/lumbar_extension/value	/jointset/patellofemoral_l/patellar_flexion_l/value	/jointset/knee_l/knee_flexion_l/value	/jointset/knee_l/knee_adduction_l/value	/jointset/knee_l/knee_rotation_l/value	/jointset/ankle_l/ankle_angle_l/value	/jointset/subtalar_l/subtalar_angle_l/value	/jointset/ground_pelvis/pelvis_tilt/speed	/jointset/ground_pelvis/pelvis_tx/speed	/jointset/ground_pelvis/pelvis_ty/speed	/jointset/hip_l/hip_flexion_l/speed	/jointset/hip_l/hip_adduction_l/speed	/jointset/hip_l/hip_rotation_l/speed	/jointset/back/lumbar_extension/speed	/jointset/patellofemoral_l/patellar_flexion_l/speed	/jointset/knee_l/knee_flexion_l/speed	/jointset/knee_l/knee_adduction_l/speed	/jointset/knee_l/knee_rotation_l/speed	/jointset/ankle_l/ankle_angle_l/speed	/jointset/subtalar_l/subtalar_angle_l/speed	/forceset/tau_hip_flexion_l	/forceset/tau_hip_adduction_l	/forceset/tau_hip_rotation_l	/forceset/tau_knee_flexion_l	/forceset/tau_ankle_angle_l	/forceset/tau_subtalar_angle_l	/forceset/tau_lumbar_extension	lambda_cid13_p0	lambda_cid13_p1	lambda_cid13_p2	lambda_cid13_p3	lambda_cid13_p4	lambda_cid13_p5	lambda_cid14_p0	/jointset/ground_pelvis/pelvis_tilt/accel	/jointset/ground_pelvis/pelvis_tx/accel	/jointset/ground_pelvis/pelvis_ty/accel	/jointset/hip_l/hip_flexion_l/accel	/jointset/hip_l/hip_adduction_l/accel	/jointset/hip_l/hip_rotation_l/accel	/jointset/back/lumbar_extension/accel	/jointset/patellofemoral_l/patellar_flexion_l/accel	/jointset/knee_l/knee_flexion_l/accel	/jointset/knee_l/knee_adduction_l/accel	/jointset/knee_l/knee_rotation_l/accel	/jointset/ankle_l/ankle_angle_l/accel	/jointset/subtalar_l/subtalar_angle_l/accel	gamma_cid13_p0	gamma_cid13_p1	gamma_cid13_p2	gamma_cid13_p3	gamma_cid13_p4	gamma_cid13_p5	gamma_cid14_p0
1	-0.3005726384292255	0.03282124914642629	0.6482457737790095	1.318205507991845	-0.4984096876393179	-0.008676134689089451	-0.261764850799448	1.343151573896273	1.343151573896194	-0.1179479213083161	-0.1745258583815678	0.4361787714822433	0.09327001317549583	-0.01513871041797561	0.01069697551006178	0.0006910390426120508	-0.003382309459581787	-0.003638888396531181	0.001379129900086062	-2.630384037862214e-06	-0.0001022844097344684	-0.0001022844097308894	-0.005632327105026072	-0.0002599744901630615	0.01736648303597573	0.008109689391714456	-0.1915535009485826	0.06803240570778857	-0.003836840019902481	-0.3479332109109318	-0.06848950787495328	0.01620922095784208	0.1918976828365947	-60.42458037168232	4.040015440466896	-1.550868244814252	14.61328680960611	-620.1408536750365	-54.8815461991105	-2.556953258018738	0.8718879740059821	-0.0125451829651006	1.546247634336055	-4.755860809337156	0.2559480394994118	-2.276295697134683	-0.01796646062453377	-5.085792078248842	-5.085792078248775	-0.393228479131947	-0.01483596367672166	-1.848564244869248	-1.041352298255993	5.369648346696815e-09	2.524572294969043e-08	-1.371008267981914e-08	4.764879602033613e-09	-8.829275980283046e-10	3.560139253398406e-08	2.502574291538602e-09
1.01	-0.3006810647265961	0.03292756927780458	0.6483298609562834	1.317934966900297	-0.4984325702925307	-0.00877780666223762	-0.2617650930621307	1.342896612901898	1.342896612901761	-0.1180208819074158	-0.1745282470115585	0.4362602780654574	0.09330048139900829	-0.006543889227998799	0.01056777113114895	0.01612390501000141	-0.05072119716214948	-0.0009263843969788083	-0.02169707473128405	-5.16338377717665e-05	-0.05088733546562968	-0.05088733546562858	-0.008955335890985138	-0.000192781481436941	-0.001064760510375635	-0.00199666438898418	-0.1915091845574594	0.06811292844490818	-0.003863292674221938	-0.34770443918077	-0.06860885063544447	0.0162258107018316	0.1918529048132777	-60.4497736908267	4.031773751265534	-1.543331191697713	14.55961084876595	-619.9939928390811	-54.86481624051034	-2.564176320473051	0.8536777342623428	-0.01299825277808072	1.541430042750434	-4.722196703050253	0.280585481853692	-2.320819331747878	0.0007609620415835808	-5.074473513350041	-5.074473513349297	-0.301169102057628	0.02125226971625611	-1.840341918167418	-0.9923781079688583	3.8905210590033e-10	2.308587709572013e-08	3.74893312185474e-08	8.746875166895192e-09	-1.151710142372393e-08	5.064710756642936e-08	-6.194499546590997e-09
1.02	-0.3007034631035783	0.03303261932791733	0.6485682015861908	1.317191178141014	-0.4984279911254427	-0.009109747978838654	-0.2617659997095054	1.34213387901818	1.342133879018062	-0.1181269389990999	-0.1745292126447177	0.436157484713485	0.09323046584671686	0.002066873672601706	0.0104429592569524	0.03154172956912423	-0.09803184295799368	0.001853475669458848	-0.04467473878709615	-0.0001355073001102522	-0.101656862285153	-0.101656862285154	-0.0122516256261696	2.462499001530823e-05	-0.01949350440272182	-0.01198706576941065	-0.1914648681681761	0.06819345118179435	-0.003889745328969293	-0.3474756674507348	-0.06872819339587632	0.01624240044548604	0.1918081267881826	-60.48355157296016	4.023323873609248	-1.53380676035046	14.54366015238621	-619.9774367485981	-54.83567813615735	-2.584939609078295	0.8750763161305373	-0.01166668202171487	1.543239352682761	-4.750212427992517	0.2694192528765937	-2.25658758202291	-0.0249404623451434	-5.082687230974463	-5.082687230974324	-0.3878846689769398	0.01520672886891079	-1.84806431406794	-1.01816181820114	-4.618549128923838e-09	2.040775801837839e-08	8.855670599024284e-08	1.266086112078067e-08	-2.241227964128125e-08	6.391383283603319e-08	-1.469140978406641e-08
1.03	-0.3006397867151398	0.03313644762197091	0.6489605945872778	1.315974622168461	-0.4983951796404993	-0.009670820197479618	-0.2617677956343576	1.340863530162735	1.340863530162684	-0.1182657972823978	-0.1745270681406161	0.435870380747263	0.09306129929821023	0.01065954318024792	0.01032382908578708	0.04692932579909929	-0.145254607203851	0.004729714803011691	-0.06750874106132324	-0.0002168245989353956	-0.1524102453524377	-0.1524102453524385	-0.0155120780350608	0.0004472834773130887	-0.03793056007331343	-0.02180994145014227	-0.1912631808072946	0.06826704953252596	-0.003959189065111041	-0.3470474413325967	-0.06872754075552455	0.01629025001811567	0.1916512309971186	-60.46023591790706	3.979528822202737	-1.505199998397111	14.47011325982733	-619.715201705048	-54.82566420181826	-2.619400712977744	0.8500319824108324	-0.01186341342734572	1.535381302499808	-4.704598651190182	0.2998406574045779	-2.292178039889743	0.001300597384313876	-5.071259636969769	-5.071259636968478	-0.2939381646896419	0.0622775544484119	-1.842015017776892	-0.958924686681451	-9.626425924911551e-09	1.772435043875735e-08	1.39622733423911e-07	1.657415309904394e-08	-3.331012116895961e-08	7.716240514887331e-08	-2.318627753582087e-08
